<?xml version="1.0" encoding="utf-8"?>
<?xml-stylesheet type="text/xsl" href="rss1.xsl"?>
<rss version="2.0" xmlns:atom="http://www.w3.org/2005/Atom" xmlns:content="http://purl.org/rss/1.0/modules/content/" xmlns:dc="http://purl.org/dc/elements/1.1/" xmlns:media="http://search.yahoo.com/mrss/">
<channel>
 <title>Getty</title>
 <link>http://www.gettyimg.com/</link>
 <atom:link href="http://www.gettyimg.com/" rel="self" type="application/rss+xml" />

 
                <item>
                <title><![CDATA[【Albums (lossless)】FLAC - Britney Spears - Glory (Japanese Edition) | 2016's Version | CD Rip | .FLAC 16bits ／ 44.1kHz]]></title>
                <link><![CDATA[https://sharemania.us/threads/britney-spears-glory-japanese-edition-2016s-version-cd-rip-flac-16bits-%EF%BC%8F-44-1khz.248269/]]></link>
                <description><![CDATA[<article>
<blockquote class="messageText SelectQuoteContainer ugc baseHtml">
<div style="text-align: center"><img src="https://i.imgur.com/2hFkJch.jpeg" class="bbCodeImage LbImage" alt="[​IMG]" data-url="https://i.imgur.com/2hFkJch.jpeg" style=""><br>
<br>
<span style="font-family: 'Book Antiqua'"><span style="font-size: 12px"><span style="color: #000000">this version does not have the feat with Tinashe and contains the bonus track from the Japanese version "<b><i>Mood Ring</i></b>".</span></span></span><br>
<br>
<span style="font-family: 'Book Antiqua'"><span style="font-size: 12px"><span style="color: #000000"><b>Size: 1,01GB</b><br>
<br>
<div class="ToggleTriggerAnchor bbCodeSpoilerContainer">
<button type="button" class="button bbCodeSpoilerButton ToggleTrigger Tooltip JsOnly" data-target="> .SpoilerTarget"><span>Spoiler: <span class="SpoilerTitle">.log</span></span></button>
<div class="SpoilerTarget bbCodeSpoilerText">Exact Audio Copy V1.2 from 12. August 2016 <br>
<br>
EAC extraction logfile from 23. September 2016, 16:48 <br>
<br>
Britney Spears / Glory (Japanese Edition) <br>
<br>
Used drive : ATAPI iHAS124 E Adapter: 1 ID: 0 <br>
<br>
Read mode : Secure <br>
Utilize accurate stream : Yes <br>
Defeat audio cache : Yes <br>
Make use of C2 pointers : No <br>
<br>
Read offset correction : 6 <br>
Overread into Lead-In and Lead-Out : No <br>
Fill up missing offset samples with silence : Yes <br>
Delete leading and trailing silent blocks : No <br>
Null samples used in CRC calculations : Yes <br>
Used interface : Native Win32 interface for Win NT &amp; 2000 <br>
Gap handling : Appended to previous track <br>
<br>
Used output format : User Defined Encoder <br>
Selected bitrate : 896 kBit/s <br>
Quality : High <br>
Add ID3 tag : No <br>
Command line compressor : C:\Program Files (x86)\Exact Audio Copy\Flac\flac.exe <br>
Additional command line options : -V -8 -T "Genre=%genre%" -T "Artist=%artist%" -T "Title=%title%" -T "Album=%albumtitle%" -T "Totaldiscs=%totalcds%" -T "Discnumber=%cdnumber%" -T "Date=%year%" -T "Tracknumber=%tracknr%" -T "Comment=%comment%" -T "Composer=%composer%" %source% <br>
<br>
<br>
TOC of the extracted CD <br>
<br>
Track | Start | Length | Start sector | End sector <br>
--------------------------------------------------------- <br>
1 | 0:00.00 | 3:19.06 | 0 | 14930 <br>
2 | 3:19.06 | 3:22.26 | 14931 | 30106 <br>
3 | 6:41.32 | 3:50.71 | 30107 | 47427 <br>
4 | 10:32.28 | 3:55.25 | 47428 | 65077 <br>
5 | 14:27.53 | 3:46.44 | 65078 | 82071 <br>
6 | 18:14.22 | 4:01.32 | 82072 | 100178 <br>
7 | 22:15.54 | 3:02.23 | 100179 | 113851 <br>
8 | 25:18.02 | 3:34.06 | 113852 | 129907 <br>
9 | 28:52.08 | 2:44.40 | 129908 | 142247 <br>
10 | 31:36.48 | 3:18.48 | 142248 | 157145 <br>
11 | 34:55.21 | 3:29.61 | 157146 | 172881 <br>
12 | 38:25.07 | 3:07.58 | 172882 | 186964 <br>
13 | 41:32.65 | 3:09.71 | 186965 | 201210 <br>
14 | 44:42.61 | 2:59.72 | 201211 | 214707 <br>
15 | 47:42.58 | 3:16.35 | 214708 | 229442 <br>
16 | 50:59.18 | 3:24.45 | 229443 | 244787 <br>
17 | 54:23.63 | 2:20.56 | 244788 | 255343 <br>
18 | 56:44.44 | 3:49.43 | 255344 | 272561 <br>
<br>
<br>
Track 1 <br>
<br>
Filename D:\CDrip\01. Invitation.wav <br>
<br>
Pre-gap length 0:00:02.00 <br>
<br>
Peak level 100.0 % <br>
Extraction speed 5.6 X <br>
Track quality 100.0 % <br>
Test CRC 49C2C818 <br>
Copy CRC 49C2C818 <br>
Track not present in AccurateRip database <br>
Copy OK <br>
<br>
Track 2 <br>
<br>
Filename D:\CDrip\02. Do You Wanna Come Over.wav <br>
<br>
Peak level 100.0 % <br>
Extraction speed 6.1 X <br>
Track quality 100.0 % <br>
Test CRC DCF7B9E5 <br>
Copy CRC DCF7B9E5 <br>
Track not present in AccurateRip database <br>
Copy OK <br>
<br>
Track 3 <br>
<br>
Filename D:\CDrip\03. Make Me....wav <br>
<br>
Peak level 100.0 % <br>
Extraction speed 6.7 X <br>
Track quality 100.0 % <br>
Test CRC B619C8C7 <br>
Copy CRC B619C8C7 <br>
Track not present in AccurateRip database <br>
Copy OK <br>
<br>
Track 4 <br>
<br>
Filename D:\CDrip\04. Private Show.wav <br>
<br>
Peak level 100.0 % <br>
Extraction speed 7.1 X <br>
Track quality 100.0 % <br>
Test CRC 6152CAB3 <br>
Copy CRC 6152CAB3 <br>
Track not present in AccurateRip database <br>
Copy OK <br>
<br>
Track 5 <br>
<br>
Filename D:\CDrip\05. Man On The Moon.wav <br>
<br>
Peak level 100.0 % <br>
Extraction speed 7.5 X <br>
Track quality 100.0 % <br>
Test CRC 2F01DDAB <br>
Copy CRC 2F01DDAB <br>
Track not present in AccurateRip database <br>
Copy OK <br>
<br>
Track 6 <br>
<br>
Filename D:\CDrip\06. Just Luv Me.wav <br>
<br>
Peak level 100.0 % <br>
Extraction speed 8.0 X <br>
Track quality 100.0 % <br>
Test CRC F6744BC7 <br>
Copy CRC F6744BC7 <br>
Track not present in AccurateRip database <br>
Copy OK <br>
<br>
Track 7 <br>
<br>
Filename D:\CDrip\07. Clumsy.wav <br>
<br>
Peak level 100.0 % <br>
Extraction speed 8.0 X <br>
Track quality 100.0 % <br>
Test CRC 36FB612C <br>
Copy CRC 36FB612C <br>
Track not present in AccurateRip database <br>
Copy OK <br>
<br>
Track 8 <br>
<br>
Filename D:\CDrip\08. Slumber Party.wav <br>
<br>
Peak level 100.0 % <br>
Extraction speed 8.5 X <br>
Track quality 100.0 % <br>
Test CRC 60830562 <br>
Copy CRC 60830562 <br>
Track not present in AccurateRip database <br>
Copy OK <br>
<br>
Track 9 <br>
<br>
Filename D:\CDrip\09. Just Like Me.wav <br>
<br>
Peak level 100.0 % <br>
Extraction speed 8.4 X <br>
Track quality 100.0 % <br>
Test CRC B396B4FD <br>
Copy CRC B396B4FD <br>
Track not present in AccurateRip database <br>
Copy OK <br>
<br>
Track 10 <br>
<br>
Filename D:\CDrip\10. Love Me Down.wav <br>
<br>
Peak level 69.6 % <br>
Extraction speed 8.9 X <br>
Track quality 100.0 % <br>
Test CRC 2BBE60FE <br>
Copy CRC 2BBE60FE <br>
Track not present in AccurateRip database <br>
Copy OK <br>
<br>
Track 11 <br>
<br>
Filename D:\CDrip\11. Hard To Forget Ya.wav <br>
<br>
Peak level 94.7 % <br>
Extraction speed 8.2 X <br>
Track quality 99.9 % <br>
Test CRC 60523726 <br>
Copy CRC 60523726 <br>
Track not present in AccurateRip database <br>
Copy OK <br>
<br>
Track 12 <br>
<br>
Filename D:\CDrip\12. What You Need.wav <br>
<br>
Peak level 100.0 % <br>
Extraction speed 9.4 X <br>
Track quality 100.0 % <br>
Test CRC 171CE682 <br>
Copy CRC 171CE682 <br>
Track not present in AccurateRip database <br>
Copy OK <br>
<br>
Track 13 <br>
<br>
Filename D:\CDrip\13. Better.wav <br>
<br>
Peak level 100.0 % <br>
Extraction speed 9.6 X <br>
Track quality 100.0 % <br>
Test CRC 3B182B12 <br>
Copy CRC 3B182B12 <br>
Track not present in AccurateRip database <br>
Copy OK <br>
<br>
Track 14 <br>
<br>
Filename D:\CDrip\14. Change Your Mind (No Seas Cortés).wav <br>
<br>
Peak level 100.0 % <br>
Extraction speed 9.7 X <br>
Track quality 100.0 % <br>
Test CRC 922F0C36 <br>
Copy CRC 922F0C36 <br>
Track not present in AccurateRip database <br>
Copy OK <br>
<br>
Track 15 <br>
<br>
Filename D:\CDrip\15. Liar.wav <br>
<br>
Peak level 94.3 % <br>
Extraction speed 10.1 X <br>
Track quality 100.0 % <br>
Test CRC CA0FB164 <br>
Copy CRC CA0FB164 <br>
Track not present in AccurateRip database <br>
Copy OK <br>
<br>
Track 16 <br>
<br>
Filename D:\CDrip\16. If I'm Dancing.wav <br>
<br>
Peak level 100.0 % <br>
Extraction speed 10.4 X <br>
Track quality 100.0 % <br>
Test CRC 541B5F83 <br>
Copy CRC 541B5F83 <br>
Track not present in AccurateRip database <br>
Copy OK <br>
<br>
Track 17 <br>
<br>
Filename D:\CDrip\17. Coupure Électrique.wav <br>
<br>
Peak level 100.0 % <br>
Extraction speed 8.3 X <br>
Track quality 99.9 % <br>
Test CRC 31BB94C0 <br>
Copy CRC 31BB94C0 <br>
Track not present in AccurateRip database <br>
Copy OK <br>
<br>
Track 18 <br>
<br>
Filename D:\CDrip\18. Mood Ring (Bonus Track).wav <br>
<br>
Peak level 100.0 % <br>
Extraction speed 11.0 X <br>
Track quality 100.0 % <br>
Test CRC 1AAB9493 <br>
Copy CRC 1AAB9493 <br>
Track not present in AccurateRip database <br>
Copy OK <br>
<br>
<br>
None of the tracks are present in the AccurateRip database <br>
<br>
No errors occurred <br>
<br>
End of status report <br>
<br>
---- CUETools DB Plugin V2.1.6 <br>
<br>
[CTDB TOCID: mXh9SftLFLVnlckYwezr7pvISko-] found <br>
Submit result: already submitted <br>
Track | CTDB Status <br>
1 | (3/3) Accurately ripped <br>
2 | (3/3) Accurately ripped <br>
3 | (3/3) Accurately ripped <br>
4 | (3/3) Accurately ripped <br>
5 | (3/3) Accurately ripped <br>
6 | (3/3) Accurately ripped <br>
7 | (3/3) Accurately ripped <br>
8 | (3/3) Accurately ripped <br>
9 | (3/3) Accurately ripped <br>
10 | (3/3) Accurately ripped <br>
11 | (3/3) Accurately ripped <br>
12 | (3/3) Accurately ripped <br>
13 | (3/3) Accurately ripped <br>
14 | (3/3) Accurately ripped <br>
15 | (3/3) Accurately ripped <br>
16 | (3/3) Accurately ripped <br>
17 | (3/3) Accurately ripped <br>
18 | (3/3) Accurately ripped <br>
<br>
<br>
<span style="font-size: 12px">==== Log checksum E762E3D301E7F3F62D53EA2261C8737A89BDB5D46A28995378E157FDF2E571C5 ==== </span></div>
</div><br>
<br>
contains <b><i>Scans</i></b><br>
<br>
<div class="bbCodeBlock bbCodeVfcHH HiddenContent">
<div class="attribution type">Hidden Content:</div>
<blockquote>You must reply before you can see the hidden data contained here.</blockquote>
</div></span></span></span>​</div>
<div class="messageTextEndMarker">&nbsp;</div>
</blockquote>
</article>]]></description>
                <author><![CDATA[Nuric]]></author>
                </item>

                
                <item>
                <title><![CDATA[【Requests】[REQ VID] - A Quiet Place: Day One (2024) HDCAM 1080p/4K [KKK]]]></title>
                <link><![CDATA[https://sharemania.us/threads/a-quiet-place-day-one-2024-hdcam-1080p-4k-kkk.248266/]]></link>
                <description><![CDATA[<article>
<blockquote class="messageText SelectQuoteContainer ugc baseHtml">
Hello!!<br>
<br>
Does anyone know if A Quiet Place: Day One (2024) is available somewhere in HDCAM 1080p/4K with english, spanish subs srt?<br>
No problems about Bet ads.<br>
<br>
Brazilian CamRip sucks (low quality+betads).<br>
<br>
I haven't seen a movie in the cinema since 2012, I can't stay in the theater with the annoying bass with noisy bathroom audio to create a cinema atmosphere +people laughing, eating, talking. I miss PCM2.0 [I hate 5.1]<br>
<br>
Thanks in advance.<img src="styles/default/xenforo/clear.png" class="mceSmilieSprite mceSmilie59" alt=":kissingcat:" title="Kissing Cat    :kissingcat:">
<div class="messageTextEndMarker">&nbsp;</div>
</blockquote>
</article>]]></description>
                <author><![CDATA[SCANDAL]]></author>
                </item>

                
                <item>
                <title><![CDATA[【Live Audios (lossless)】WAV - Madonna - Re-Invention Tour in Inglewood (May 22nd 2004) [Soundboard Dress Rehearsal] (WAV and MP3)]]></title>
                <link><![CDATA[https://sharemania.us/threads/madonna-re-invention-tour-in-inglewood-may-22nd-2004-soundboard-dress-rehearsal-wav-and-mp3.248267/]]></link>
                <description><![CDATA[<article>
<blockquote class="messageText SelectQuoteContainer ugc baseHtml">
<a href="https://dl12.debrid.link/dl/d5kzfws5utxs84kowk0wog8/A.Q.P.D.O.2024.V.2.720p.HDCAM-C1NEM4.mp4" target="_blank" class="externalLink" rel="nofollow">A.Quiet.Place.Day.One.2024.V.2.720p.HDCAM-C1NEM4</a><br>
This is the only version released yet
<div class="messageTextEndMarker">&nbsp;</div>
</blockquote>
</article>]]></description>
                <author><![CDATA[brunodesalles_]]></author>
                </item>

                
                <item>
                <title><![CDATA[【Singles (lossless)】FLAC - Kylie Minogue - Shocked (DNA Mix) (1991) [Maxi CD Singles] [16bits/44.1kHz]]]></title>
                <link><![CDATA[https://sharemania.us/threads/kylie-minogue-shocked-dna-mix-1991-maxi-cd-singles-16bits-44-1khz.248268/]]></link>
                <description><![CDATA[<article>
<blockquote class="messageText SelectQuoteContainer ugc baseHtml">
<img src="https://pbs.twimg.com/media/GRIWxVOWcAAeuUC?format=jpg&amp;name=900x900" class="bbCodeImage LbImage" alt="[​IMG]" data-url="https://pbs.twimg.com/media/GRIWxVOWcAAeuUC?format=jpg&amp;name=900x900" style=""> <br>
<br>
Agradecimento: @Yamata_Lima (Twitter)<br>
<br>
<div class="bbCodeBlock bbCodeVfcHH HiddenContent">
<div class="attribution type">Hidden Content:</div>
<blockquote>You must reply before you can see the hidden data contained here.</blockquote>
</div>
<div class="messageTextEndMarker">&nbsp;</div>
</blockquote>
</article>]]></description>
                <author><![CDATA[olobersykes99]]></author>
                </item>

                </channel></rss>